<?xml version="1.0" encoding="UTF-8"?>
<svg version="1.1" xmlns="http://www.w3.org/2000/svg" width="200" height="200">
<path d="M0 0 C66 0 132 0 200 0 C200 66 200 132 200 200 C134 200 68 200 0 200 C0 134 0 68 0 0 Z " fill="#FEFDFD" transform="translate(0,0)"/>
<path d="M0 0 C7.92 0 15.84 0 24 0 C27.31736147 9.95208442 30.26923526 19.90372081 32.875 30.0625 C36.15560878 42.83883508 39.80590319 55.49236539 44 68 C44.20568604 67.27748047 44.41137207 66.55496094 44.62329102 65.81054688 C46.71001137 58.48417413 48.80252125 51.1594729 50.90087891 43.83642578 C51.6018538 41.38970889 52.30212322 38.9427897 53.00146484 36.49560547 C53.91351438 33.30836588 54.83093088 30.12272151 55.75 26.9375 C56.0188501 25.99519531 56.2877002 25.05289063 56.56469727 24.08203125 C62.32628975 4.2005545 62.32628975 4.2005545 68 1 C73.90839651 -0.9694655 80.60299573 -0.77046566 86.5 1.125 C92.87394895 5.90546171 94.3607638 12.69826024 96.375 20.0625 C96.67317627 21.11872559 96.97135254 22.17495117 97.27856445 23.26318359 C97.89355906 25.44363386 98.50430296 27.6252874 99.11083984 29.80810547 C100.1962434 33.70447178 101.31068514 37.59210513 102.42773438 41.47949219 C103.40212012 44.87230836 104.36824094 48.26745225 105.33447266 51.66259766 C106.34545843 55.21328651 107.36023353 58.76289018 108.375 62.3125 C108.91666667 64.20833333 109.45833333 66.10416667 110 68 C113.62903077 56.97134976 116.87211047 45.91113059 119.73974609 34.66015625 C122.73663722 22.97915896 126.18675517 11.4397345 130 0 C137.92 0 145.84 0 154 0 C155.05893142 5.29465711 154.70930755 6.84531796 153.03515625 11.7890625 C152.81086441 12.46520096 152.58657257 13.14133942 152.35548401 13.83796692 C151.60186504 16.10404658 150.83225964 18.36435699 150.0625 20.625 C148.95052077 23.93925029 147.84739573 27.2564069 146.74609375 30.57421875 C146.45017334 31.46281082 146.15425293 32.35140289 145.84936523 33.266922 C143.39980498 40.67105763 141.10894832 48.11852462 138.84765625 55.58203125 C138.14015238 57.90095819 137.4323891 60.21980599 136.72436523 62.53857422 C135.67516284 65.97578271 134.63192516 69.41420893 133.60769653 72.85894775 C132.64350535 76.09760417 131.65608058 79.3283705 130.6640625 82.55859375 C130.38309219 83.52585892 130.10212189 84.49312408 129.81263733 85.48970032 C127.93294573 91.51471149 125.92463028 94.98852736 121 99 C117.43559582 100.18813473 114.44525218 100.24187953 110.6875 100.3125 C108.74423828 100.36857422 108.74423828 100.36857422 106.76171875 100.42578125 C102.36124059 99.92770013 100.35964525 98.84576012 97 96 C94.72207586 92.63021083 93.34372602 89.42752739 92.19067383 85.53881836 C91.87056839 84.47098618 91.55046295 83.40315399 91.22065735 82.30296326 C90.88616074 81.16013382 90.55166412 80.01730438 90.20703125 78.83984375 C89.85613937 77.65781876 89.5052475 76.47579376 89.14372253 75.25794983 C88.40501687 72.76337824 87.6697688 70.26778051 86.93774414 67.77124023 C86.18663384 65.21218512 85.43239104 62.65440956 84.67114258 60.09838867 C83.57289293 56.40979776 82.48234704 52.71902368 81.39453125 49.02734375 C80.88367729 47.31006325 80.88367729 47.31006325 80.36250305 45.55809021 C80.0518541 44.49341019 79.74120514 43.42873016 79.42114258 42.33178711 C79.00835808 40.92877602 79.00835808 40.92877602 78.5872345 39.49742126 C78 37 78 37 78 33 C77.34 33 76.68 33 76 33 C75.90251465 33.91442871 75.8050293 34.82885742 75.70458984 35.77099609 C74.92263354 41.2065875 73.2760448 46.40703083 71.7265625 51.6640625 C71.23994644 53.32941544 71.23994644 53.32941544 70.74349976 55.02841187 C70.05835923 57.36732285 69.37069531 59.70549596 68.68066406 62.04296875 C67.62727497 65.61728067 66.58665326 69.19514579 65.546875 72.7734375 C64.87837593 75.04970596 64.20913037 77.32575535 63.5390625 79.6015625 C63.22957672 80.66935944 62.92009094 81.73715637 62.60122681 82.83731079 C62.30436981 83.83539764 62.00751282 84.8334845 61.70166016 85.86181641 C61.44486481 86.73560944 61.18806946 87.60940247 60.92349243 88.50967407 C59.22089311 93.10097022 57.18186224 96.3863361 53 99 C49.40998391 100.19667203 46.4095161 100.20538881 42.625 100.25 C40.66433594 100.28867188 40.66433594 100.28867188 38.6640625 100.328125 C34.79726588 99.98184471 33.00846383 99.39812916 30 97 C26.06383448 91.79663589 24.31678948 85.11609837 22.41796875 78.95703125 C21.88747808 77.25726501 21.35678404 75.55756224 20.82592773 73.85791016 C20.53595917 72.92626038 20.2459906 71.9946106 19.94723511 71.034729 C18.16166088 65.31414935 16.35215878 59.60110233 14.546875 53.88671875 C13.75513303 51.37827898 12.96346723 48.86981516 12.171875 46.36132812 C11.77018467 45.0886223 11.36849195 43.81591722 10.96679688 42.54321289 C10.14821695 39.94953242 9.3298767 37.3557765 8.51171875 34.76196289 C7.31563583 30.97004698 6.11877465 27.17837695 4.921875 23.38671875 C4.55729187 22.23048508 4.19270874 21.0742514 3.81707764 19.88298035 C3.47622131 18.80357681 3.13536499 17.72417328 2.78417969 16.61206055 C2.48695007 15.67009323 2.18972046 14.72812592 1.88348389 13.75761414 C1.25799734 11.80528589 0.56491225 9.87402525 -0.17401123 7.96174622 C-1 5 -1 5 0 0 Z " fill="#FB213E" transform="translate(23,50)"/>
<path d="M0 0 C0.66 0 1.32 0 2 0 C0.56220082 7.0219788 -1.40681968 13.75016167 -3.625 20.5625 C-3.94984375 21.57119141 -4.2746875 22.57988281 -4.609375 23.61914062 C-5.40264698 26.08061692 -6.19958143 28.5408403 -7 31 C-7.94466403 27.67202915 -7.93887784 26.16192499 -6.625 22.9375 C-4.96077452 18.38357393 -4.49574727 14.1065788 -4.2109375 9.28515625 C-4 7 -4 7 -3 5 C-2.01 5 -1.02 5 0 5 C0 3.35 0 1.7 0 0 Z " fill="#E7314D" transform="translate(167,80)"/>
<path d="M0 0 C0.99966797 0.34224609 0.99966797 0.34224609 2.01953125 0.69140625 C8.82512304 2.81398942 14.97355708 3.72420094 22 2 C22.33 1.34 22.66 0.68 23 0 C24.32 0.33 25.64 0.66 27 1 C22.21746787 4.79304272 18.68980677 5.17850915 12.625 5.25 C11.31789063 5.27578125 10.01078125 5.3015625 8.6640625 5.328125 C4.86762601 4.98814561 2.96166166 4.35560734 0 2 C0 1.34 0 0.68 0 0 Z " fill="#E7415B" transform="translate(53,145)"/>
<path d="M0 0 C1.03934838 3.42763827 0.71398906 5.30430943 -0.38671875 8.71875 C-1.72797237 13.70787175 -2.2778085 18.8908793 -3 24 C-4.32 24.33 -5.64 24.66 -7 25 C-4.95838673 16.5537319 -2.92608728 8.19304439 0 0 Z " fill="#E23D56" transform="translate(141,92)"/>
<path d="M0 0 C1.37290359 4.11871077 0.02290698 7.08554476 -1.25 11.0625 C-1.46785156 11.79533203 -1.68570313 12.52816406 -1.91015625 13.28320312 C-3.62753158 18.75168772 -3.62753158 18.75168772 -7 21 C-6.33333333 17.66666667 -5.66666667 14.33333333 -5 11 C-4.34 11 -3.68 11 -3 11 C-3.061875 10.29875 -3.12375 9.5975 -3.1875 8.875 C-2.95743899 5.34739788 -1.70799432 3.06015649 0 0 Z " fill="#E53149" transform="translate(154,124)"/>
<path d="M0 0 C2.5215021 -0.08172936 5.04029917 -0.14083373 7.5625 -0.1875 C8.26697266 -0.21263672 8.97144531 -0.23777344 9.69726562 -0.26367188 C14.88144374 -0.33534254 18.41830292 0.52137699 23 3 C23.99 4.485 23.99 4.485 25 6 C24.34 6.66 23.68 7.32 23 8 C22.236875 7.195625 21.47375 6.39125 20.6875 5.5625 C16.48480543 1.5552796 12.811462 1.87075256 7.3125 1.9375 C6.61060547 1.94201172 5.90871094 1.94652344 5.18554688 1.95117188 C3.45699462 1.96293073 1.72848635 1.98086546 0 2 C0 1.34 0 0.68 0 0 Z " fill="#FEE1E5" transform="translate(91,49)"/>
<path d="M0 0 C2.13155716 3.19733574 2.98269831 5.88788968 4.0625 9.5625 C5.28252512 13.87908901 5.28252512 13.87908901 7 18 C5.02 17.34 3.04 16.68 1 16 C0.67 10.72 0.34 5.44 0 0 Z " fill="#FED5DD" transform="translate(113,128)"/>
<path d="M0 0 C1.63001953 0.01353516 1.63001953 0.01353516 3.29296875 0.02734375 C4.12441406 0.03894531 4.95585938 0.05054688 5.8125 0.0625 C3.02899667 2.84600333 0.74361129 2.68446076 -3.125 3.1875 C-4.37152344 3.35507812 -5.61804688 3.52265625 -6.90234375 3.6953125 C-10.1875 4.0625 -10.1875 4.0625 -13.1875 4.0625 C-8.73720497 0.53295567 -5.63869785 -0.06063116 0 0 Z " fill="#E72E4C" transform="translate(100.1875,49.9375)"/>
<path d="M0 0 C3.2645028 3.2645028 3.93236055 7.41047299 4.125 11.9375 C4.08375 12.618125 4.0425 13.29875 4 14 C3.34 14 2.68 14 2 14 C-0.28062828 10.57905758 -0.21925007 9.31812778 -0.125 5.3125 C-0.10695312 4.31863281 -0.08890625 3.32476562 -0.0703125 2.30078125 C-0.04710937 1.54152344 -0.02390625 0.78226563 0 0 Z " fill="#EA3550" transform="translate(49,60)"/>
<path d="M0 0 C1.53166168 4.08443115 0.63081652 7.79455657 0 12 C-0.66 12 -1.32 12 -2 12 C-2.33 13.65 -2.66 15.3 -3 17 C-3.66 17 -4.32 17 -5 17 C-4.80664062 16.35933594 -4.61328125 15.71867187 -4.4140625 15.05859375 C-2.9059252 10.04889015 -1.42282214 5.03460143 0 0 Z " fill="#E74258" transform="translate(71,104)"/>
<path d="M0 0 C0.66 0 1.32 0 2 0 C0.84941444 5.39795989 -0.42421759 10.70987333 -2 16 C-2.66 15.67 -3.32 15.34 -4 15 C-3.79503906 14.25234375 -3.59007812 13.5046875 -3.37890625 12.734375 C-3.10949219 11.74953125 -2.84007812 10.7646875 -2.5625 9.75 C-2.29566406 8.77546875 -2.02882812 7.8009375 -1.75390625 6.796875 C-1.14455416 4.53627347 -0.55761745 2.27377991 0 0 Z " fill="#FCD5DA" transform="translate(141,85)"/>
<path d="M0 0 C0.33 0 0.66 0 1 0 C0.88557539 1.60495567 0.75805306 3.20898119 0.625 4.8125 C0.55539063 5.70582031 0.48578125 6.59914063 0.4140625 7.51953125 C0 10 0 10 -2 13 C-2.66 13 -3.32 13 -4 13 C-3.71517632 11.58194169 -3.42181856 10.16559621 -3.125 8.75 C-2.96257812 7.96109375 -2.80015625 7.1721875 -2.6328125 6.359375 C-2.00849925 4.03168856 -1.15161458 2.10968048 0 0 Z " fill="#EA3654" transform="translate(86,55)"/>
<path d="M0 0 C1.43211146 3.8189639 1.3006473 8.1611198 0 12 C-2.05078125 13.74609375 -2.05078125 13.74609375 -4 15 C-3.52229477 13.06213915 -3.04278429 11.12472326 -2.5625 9.1875 C-2.29566406 8.10855469 -2.02882813 7.02960938 -1.75390625 5.91796875 C-1.23922588 3.9259157 -0.65062825 1.95188476 0 0 Z " fill="#FDCDD4" transform="translate(95,97)"/>
<path d="M0 0 C4.17407893 4.17407893 4.4321027 8.32102701 5 14 C3 13 3 13 2.1484375 11.07421875 C1.89320312 10.28660156 1.63796875 9.49898437 1.375 8.6875 C0.98441406 7.51767578 0.98441406 7.51767578 0.5859375 6.32421875 C0 4 0 4 0 0 Z " fill="#E33851" transform="translate(115,131)"/>
<path d="M0 0 C1.46726798 3.81489674 0.43336419 6.29011622 -1 10 C-1.99 9.67 -2.98 9.34 -4 9 C-3.67 7.68 -3.34 6.36 -3 5 C-2.34 5 -1.68 5 -1 5 C-0.67 3.35 -0.34 1.7 0 0 Z " fill="#EE2E4B" transform="translate(138,107)"/>
<path d="M0 0 C0.33 0 0.66 0 1 0 C1.8125 2.6875 1.8125 2.6875 2 6 C-0.4375 8.875 -0.4375 8.875 -3 11 C-2.01 7.37 -1.02 3.74 0 0 Z " fill="#FED5DB" transform="translate(168,83)"/>
<path d="M0 0 C0.99 0.33 1.98 0.66 3 1 C1.68 3.64 0.36 6.28 -1 9 C-1.33 9 -1.66 9 -2 9 C-2.25 3.375 -2.25 3.375 0 0 Z " fill="#FEE6E7" transform="translate(85,53)"/>
<path d="M0 0 C0.99 0.33 1.98 0.66 3 1 C4.1875 3.5625 4.1875 3.5625 5 6 C3.02 5.34 1.04 4.68 -1 4 C-0.67 2.68 -0.34 1.36 0 0 Z " fill="#FDE8EC" transform="translate(115,140)"/>
</svg>
